<svg width="113" height="22" viewBox="0 0 113 22" fill="none" xmlns="http://www.w3.org/2000/svg">
<path d="M0.000136733 16.8V0.599988H7.46014C9.26014 0.599988 10.6535 1.05332 11.6401 1.95999C12.6401 2.85332 13.1401 4.08665 13.1401 5.65999C13.1401 7.21999 12.6401 8.45332 11.6401 9.35999C10.6535 10.2667 9.26014 10.72 7.46014 10.72H2.78014V16.8H0.000136733ZM2.78014 8.33999H7.30014C8.30014 8.33999 9.06014 8.09999 9.58014 7.61999C10.1001 7.13999 10.3601 6.48665 10.3601 5.65999C10.3601 4.81999 10.1001 4.16665 9.58014 3.69999C9.06014 3.21999 8.30014 2.97999 7.30014 2.97999H2.78014V8.33999ZM14.7261 16.8V-1.19209e-05H17.4461V6.63999H17.5261C17.9127 5.95999 18.4394 5.44665 19.1061 5.09999C19.7861 4.75332 20.5861 4.57999 21.5061 4.57999C23.0127 4.57999 24.2061 5.03332 25.0861 5.93999C25.9794 6.83332 26.4261 8.03332 26.4261 9.53999V16.8H23.7061V10.02C23.7061 9.03332 23.4394 8.27999 22.9061 7.75999C22.3861 7.23999 21.6127 6.97999 20.5861 6.97999C19.5594 6.97999 18.7794 7.23999 18.2461 7.75999C17.7127 8.27999 17.4461 9.03332 17.4461 10.02V16.8H14.7261ZM28.4858 21.6V19.42H31.2658L32.3658 16.78L27.0858 4.79999H29.9258L33.7058 13.6H33.8058L37.4458 4.79999H40.1658L35.0458 16.8L33.9458 19.4C33.6524 20.0933 33.3324 20.6333 32.9858 21.02C32.6524 21.4067 32.0991 21.6 31.3258 21.6H28.4858ZM45.4248 17.04C43.7182 17.04 42.3715 16.6867 41.3848 15.98C40.3982 15.26 39.8582 14.26 39.7648 12.98H42.4248C42.5182 13.6333 42.8182 14.12 43.3248 14.44C43.8315 14.76 44.5648 14.92 45.5248 14.92C47.1782 14.92 48.0048 14.4267 48.0048 13.44C48.0048 13.04 47.8782 12.7267 47.6248 12.5C47.3715 12.2733 46.9515 12.1067 46.3648 12L43.7048 11.5C41.3982 11.06 40.2448 9.96665 40.2448 8.21999C40.2448 7.09999 40.6848 6.21332 41.5648 5.55999C42.4448 4.89332 43.6515 4.55999 45.1848 4.55999C46.7315 4.55999 47.9582 4.89999 48.8648 5.57999C49.7848 6.25999 50.2982 7.20665 50.4048 8.41999H47.7848C47.6382 7.80665 47.3448 7.35332 46.9048 7.05999C46.4782 6.76665 45.8582 6.61999 45.0448 6.61999C44.3248 6.61999 43.7715 6.73999 43.3848 6.97999C42.9982 7.21999 42.8048 7.56665 42.8048 8.01999C42.8048 8.35332 42.9248 8.62665 43.1648 8.83999C43.4182 9.03999 43.8115 9.19332 44.3448 9.29999L47.0248 9.81999C48.2382 10.0467 49.1248 10.44 49.6848 11C50.2448 11.5467 50.5248 12.2867 50.5248 13.22C50.5248 14.42 50.0848 15.36 49.2048 16.04C48.3248 16.7067 47.0648 17.04 45.4248 17.04ZM57.7723 17.04C56.5057 17.04 55.399 16.7867 54.4523 16.28C53.519 15.76 52.799 15.0267 52.2923 14.08C51.7857 13.1333 51.5323 12.0267 51.5323 10.76C51.5323 9.49332 51.779 8.39999 52.2723 7.47999C52.779 6.54665 53.4923 5.82665 54.4123 5.31999C55.3323 4.81332 56.419 4.55999 57.6723 4.55999C58.8723 4.55999 59.9057 4.79999 60.7723 5.27999C61.639 5.74665 62.3057 6.41999 62.7723 7.29999C63.2523 8.16665 63.4923 9.19999 63.4923 10.4V11.4H54.1323C54.239 12.4933 54.6057 13.34 55.2323 13.94C55.859 14.5267 56.699 14.82 57.7523 14.82C58.5257 14.82 59.159 14.6733 59.6523 14.38C60.1457 14.0867 60.4857 13.6467 60.6723 13.06H63.4323C63.139 14.3133 62.4923 15.2933 61.4923 16C60.5057 16.6933 59.2657 17.04 57.7723 17.04ZM54.2123 9.49999H60.8923C60.7857 8.61999 60.4523 7.94665 59.8923 7.47999C59.3323 6.99999 58.5923 6.75999 57.6723 6.75999C56.7523 6.75999 55.9923 6.99999 55.3923 7.47999C54.7923 7.94665 54.399 8.61999 54.2123 9.49999ZM66.1861 16.8V7.53999H64.8061V4.79999H67.6461V7.09999H68.4861C68.8061 6.31332 69.3127 5.71332 70.0061 5.29999C70.7127 4.88665 71.5194 4.67999 72.4261 4.67999H73.4261V7.01999H72.3061C71.1727 7.01999 70.3127 7.34665 69.7261 7.99999C69.1527 8.65332 68.8661 9.52665 68.8661 10.62V16.8H66.1861ZM78.2058 17.02C76.8324 17.02 75.7458 16.68 74.9458 16C74.1591 15.32 73.7658 14.4267 73.7658 13.32C73.7658 12.16 74.1658 11.26 74.9658 10.62C75.7658 9.97999 76.9124 9.65999 78.4058 9.65999H82.2058V9.15999C82.2058 7.55999 81.2991 6.75999 79.4858 6.75999C77.9524 6.75999 77.0324 7.31332 76.7258 8.41999H74.0058C74.2324 7.17999 74.8191 6.22665 75.7658 5.55999C76.7258 4.89332 77.9724 4.55999 79.5058 4.55999C81.2258 4.55999 82.5391 4.95999 83.4458 5.75999C84.3524 6.54665 84.8058 7.69332 84.8058 9.19999V14.06H86.1058V16.8H83.2858V14.9H82.4458C82.0324 15.5667 81.4724 16.0867 80.7658 16.46C80.0591 16.8333 79.2058 17.02 78.2058 17.02ZM78.6058 14.9C79.2858 14.9 79.8991 14.7667 80.4458 14.5C80.9924 14.2333 81.4191 13.88 81.7258 13.44C82.0458 12.9867 82.2058 12.4867 82.2058 11.94V11.56H78.5458C77.0791 11.56 76.3458 12.1067 76.3458 13.2C76.3458 13.7333 76.5458 14.1533 76.9458 14.46C77.3458 14.7533 77.8991 14.9 78.6058 14.9ZM91.8498 16.8L98.7498 0.599988H101.71L108.57 16.8H105.75L103.85 12.36H96.4898L94.5898 16.8H91.8498ZM97.3898 9.99999H103.05L100.27 3.37999H100.17L97.3898 9.99999ZM110.159 16.8V0.599988H112.939V16.8H110.159Z" fill="black"/>
</svg>
